<?xml version="1.0" encoding="UTF-8" standalone="no"?>
<!-- Created with Inkscape (http://www.inkscape.org/) -->
<svg id="svg3036" xmlns:inkscape="http://www.inkscape.org/namespaces/inkscape" xmlns:rdf="http://www.w3.org/1999/02/22-rdf-syntax-ns#" xmlns="http://www.w3.org/2000/svg" sodipodi:docname="logo.png" height="57" width="302" version="1.1" xmlns:cc="http://creativecommons.org/ns#" xmlns:dc="http://purl.org/dc/elements/1.1/" inkscape:version="0.48.4 r9939" xmlns:sodipodi="http://sodipodi.sourceforge.net/DTD/sodipodi-0.dtd">
 <metadata id="metadata3042">
  <rdf:RDF>
   <cc:Work rdf:about="">
    <dc:format>image/svg+xml</dc:format>
    <dc:type rdf:resource="http://purl.org/dc/dcmitype/StillImage"/>
    <dc:title/>
   </cc:Work>
  </rdf:RDF>
 </metadata>
 <sodipodi:namedview id="namedview3038" bordercolor="#666666" inkscape:pageshadow="2" guidetolerance="10" pagecolor="#ffffff" gridtolerance="10" inkscape:window-maximized="1" inkscape:zoom="1" objecttolerance="10" borderopacity="1" inkscape:current-layer="svg3036" inkscape:cx="87.04" inkscape:cy="1.8333333" inkscape:window-y="-8" inkscape:window-x="-8" inkscape:window-width="1600" showgrid="false" inkscape:pageopacity="0" inkscape:window-height="838"/>
 <path id="path3046" inkscape:connector-curvature="0" fill="#090909" d="m26.2,53.792c0-2.8135-0.5484-3.178-12.514-8.3174l-12.514-5.3749,0.26406-4.8625,0.26406-4.8625,12-4.839,12-4.8378-12.25-0.0498c-11.567-0.046-12.25-0.161-12.25-2.049,0-1.9316,0.66667-2,19.5-2,15.972,0,19.5,0.25124,19.5,1.3887,0,0.79312,1.4885,1.6679,3.4706,2.0398,4.5504,0.85367,9.364,4.998,11.65,10.03,1.8267,4.0215,2.5597,13.02,1.1297,13.869-0.4125,0.24488-3.5625,0.76562-7,1.1572l-6.25,0.71197v-7.0982c0-6.4315,0.18784-7.0982,2-7.0982,2.0272,0,2.574-1.5945,1.2347-3.6003-0.72775-1.0899-4.5793-3.3997-5.6689-3.3997-0.31116,0-0.56574,6.7078-0.56574,14.906v14.906l-5.25,0.66617c-2.8875,0.3664-6.0375,0.88895-7,1.1612-1.3823,0.39104-1.75-0.12314-1.75-2.4474zm-0.28442-26.81c-0.20965-0.20966-3.9266,1.0628-8.2598,2.8277l-7.8787,3.2089,7.9615,3.6639,7.9615,3.6639,0.29839-6.4916c0.16411-3.5704,0.12685-6.6631-0.0828-6.8728zm35.284,11.425v-17.807h-2.5c-1.8333,0-2.5-0.53334-2.5-2,0-1.8596,0.66667-2,9.5-2h9.5v18.859,18.859l-7,0.94756-7,0.94755v-17.807zm26.306,13.847c-5.6101-6.2097-8.627-13.774-8.0876-20.278,0.2877-3.4692,1.2455-6.5123,2.646-8.4066l2.1951-2.969h-2.5299c-1.8691,0-2.5299-0.52606-2.5299-2.0139,0-1.9823,0.50537-2.0097,32.25-1.75l32.25,0.264v18.455,18.455l-3.5,0.67485c-1.925,0.37117-5.1875,0.92552-7.25,1.2319l-3.75,0.55705v-10.315c0-7.9094-0.34682-10.603-1.4873-11.549-2.0979-1.7411-4.1343-0.65432-4.9633,2.6486-0.83839,3.3404-2.1132,4.3048-5.7178,4.3255-1.9939,0.0114-3.2314-0.89551-4.8952-3.5877-2.3818-3.8539-7.2816-7.3871-10.253-7.3932-2.8686-0.006-1.878,5.3976,1.0662,5.8158,2.0248,0.28757,9.0424,8.7216,8.0678,9.6962-0.20636,0.20636-3.4731,0.87009-7.2594,1.475-7.6826,1.2273-7.7368,1.1981-9.7198-5.2407-2.7256-8.85,3.9655-17.312,13.586-17.181,2.7914,0.0379,6.5459,0.84108,8.3433,1.7849,3.2437,1.7034,3.2854,1.6958,5.6325-1.0329,2.1237-2.4689,2.6313-2.6275,4.9821-1.5564,2.454,1.1182,2.6175,1.032,2.6175-1.3797v-2.5723l-14.25,0.3631c-17.299,0.4408-19.705,1.3839-23.316,9.1395-2.8287,6.0755-3.042,10.124-0.82504,15.665,1.2349,3.0864,2.1509,4.0202,3.9433,4.0202,2.2895,0,5.803,3.6169,4.9127,5.0573-0.24862,0.40227-2.2903,0.90671-4.5371,1.121-3.699,0.35275-4.4193,0.0196-7.6211-3.5244zm63.694-1.547c0-3.3588,0.3375-6.1083,0.75-6.1099,0.4125-0.002,3.5625,1.1909,7,2.65,5.0108,2.1269,6.25,3.096,6.25,4.8876,0,1.9664-0.67943,2.3196-5.6568,2.9415-3.1112,0.38872-6.2612,0.93871-7,1.2222-1.0339,0.39676-1.3432-0.89074-1.3432-5.5915zm22,2.8637c0-2.4302-1.0262-3.0875-12.75-8.1667l-12.75-5.5238-0.30018-4.5272-0.30018-4.5272,12.249-4.8629,12.249-4.8629-12.266-0.28132c-10.973-0.25166-12.232-0.46252-11.936-2,0.29682-1.5446,2.3298-1.7461,20.067-1.9898l19.74-0.271v18.88,18.88l-7,0.94756-7,0.94755v-2.6429zm-0.25816-26.562c-0.19521-0.19521-4.0825,1.0613-8.6384,2.7922l-8.2834,3.1471,5.84,2.6062c3.212,1.4334,6.965,3.0901,8.34,3.6814l2.5,1.0752,0.29839-6.4736c0.16411-3.5605,0.13866-6.6333-0.0566-6.8285zm53.716,28.162c-0.18763-0.58872-0.47999-1.916-0.64969-2.9496-0.22078-1.3446-3.7221-3.3634-12.309-7.0968l-12-5.2176-0.30018-4.5402-0.30018-4.5402,12.249-4.8629,12.249-4.8629-12.266-0.28132c-10.973-0.25166-12.232-0.46252-11.936-2,0.29682-1.5446,2.3298-1.7461,20.067-1.9898,16.354-0.22467,19.737-0.03185,19.737,1.125,0,0.76788,1.3879,1.6737,3.0842,2.013,7.9092,1.5818,12.916,8.7893,12.916,18.593,0,5.2221-0.25187,6.0398-1.8604,6.0398-1.0232,0-3.9482,0.28616-6.5,0.63592l-4.6396,0.63592v-7.1359c0-6.4693,0.18685-7.1359,2-7.1359,1.1,0,2-0.34988,2-0.7775,0-1.6412-3.0297-4.997-4.9694-5.5042-1.9731-0.51598-2.0306-0.11283-2.0306,14.235v14.766l-7.1003,0.96113c-4.9588,0.67125-7.2032,0.6383-7.4414-0.10925zm-0.45824-21.97,0-6.3997-8.0195,3.0468c-4.4108,1.6758-7.8982,3.1493-7.75,3.2746,0.63686,0.53819,14.339,6.4206,15.02,6.4479,0.4125,0.0166,0.75-2.8498,0.75-6.3696zm36,18.668c0-4.6285,0.20087-4.9337,9.25-14.057l9.25-9.3262-2.33-1.9177c-3.2445-2.6704-8.9843-4.1373-11.313-2.8911-2.874,1.5381-2.2552,3.1699,0.93634,2.4689,2.1287-0.46754,3.2978-0.07,4.9119,1.6706l2.1182,2.2841-3.823,4.2785-3.823,4.2785-2.8389-2.4419c-2.3384-2.0114-2.8389-3.2374-2.8389-6.9551,0-8.4124,6.828-14.078,16.14-13.392l5.1399,0.37852,0.501-4.4448c0.66166-5.8702,4.7897-10.133,10.563-10.907l4.1566-0.55752v7.1317,7.1317h-3c-2.3333,0-3-0.44444-3-2,0-1.1-0.585-2-1.3-2-1.8551,0-3.7,2.0943-3.7,4.2,0,1.5619,0.92593,1.8,7,1.8,6.3333,0,7,0.19048,7,2,0,1.7576-0.66667,2-5.5,2-3.025,0-5.5,0.25502-5.5,0.56672s1.1071,2.0182,2.4602,3.7922c4.5565,5.9739,7.6643,14.248,8.2474,21.958l0.55188,7.2972-7.8798,1.1995c-4.3339,0.65972-13.167,1.1965-19.63,1.1929l-11.75-0.007v-4.7312zm24.591-7.7754c0.77237-3.0774-0.2824-9.1847-1.742-10.087-0.59047-0.36493-4.0564,2.3193-7.702,5.9649l-6.6284,6.6284h7.7217c7.4079,0,7.7472-0.10187,8.3508-2.5066z"/>
</svg>
